<?xml version="1.0" encoding="UTF-8"?>
<svg width="80px" height="54px" viewBox="0 0 80 54" version="1.1" xmlns="http://www.w3.org/2000/svg" xmlns:xlink="http://www.w3.org/1999/xlink">
    <title>eur-flag</title>
    <g id="Page-1" stroke="none" stroke-width="1" fill="none" fill-rule="evenodd">
        <g id="eur-flag" fill-rule="nonzero">
            <rect id="Rectangle" fill="#003399" x="0" y="0" width="80" height="53.553719"></rect>
            <g id="Group" transform="translate(19.434712, 6.394328)" fill="#FFCC00">
                <g id="s" transform="translate(17.654712, -0.000000)">
                    <g id="c" transform="translate(1.836418, 0.000000)">
                        <polygon id="t" transform="translate(1.649713, 1.635923) rotate(18.000000) translate(-1.649713, -1.635923) " points="0.911198903 0.155769507 0.916189723 3.1135817 2.38822655 3.11607711"></polygon>
                        <g id="t-link" transform="translate(1.159761, 1.635923) scale(-1, 1) translate(-1.159761, -1.635923) ">
                            <polygon id="t" transform="translate(1.159761, 1.635923) rotate(18.000000) translate(-1.159761, -1.635923) " points="0.42124724 0.155769438 0.426238055 3.11358163 1.89827488 3.11607704"></polygon>
                        </g>
                    </g>
                    <g id="a" transform="translate(1.916419, 0.708499)">
                        <g id="c" transform="translate(2.575948, 1.841512) rotate(72.000000) translate(-2.575948, -1.841512) translate(1.171211, 0.205589)">
                            <polygon id="t" transform="translate(1.649713, 1.635923) rotate(18.000000) translate(-1.649713, -1.635923) " points="0.911198903 0.155769507 0.916189723 3.1135817 2.38822655 3.11607711"></polygon>
                            <g id="t-link" transform="translate(1.159761, 1.635923) scale(-1, 1) translate(-1.159761, -1.635923) ">
                                <polygon id="t" transform="translate(1.159761, 1.635923) rotate(18.000000) translate(-1.159761, -1.635923) " points="0.42124724 0.155769438 0.426238055 3.11358163 1.89827488 3.11607704"></polygon>
                            </g>
                        </g>
                        <g id="c" transform="translate(2.098028, 3.321408) rotate(144.000000) translate(-2.098028, -3.321408) translate(0.693291, 1.685484)">
                            <polygon id="t" transform="translate(1.649713, 1.635923) rotate(18.000000) translate(-1.649713, -1.635923) " points="0.911198903 0.155769507 0.916189723 3.1135817 2.38822655 3.11607711"></polygon>
                            <g id="t-link" transform="translate(1.159761, 1.635923) scale(-1, 1) translate(-1.159761, -1.635923) ">
                                <polygon id="t" transform="translate(1.159761, 1.635923) rotate(18.000000) translate(-1.159761, -1.635923) " points="0.42124724 0.155769438 0.426238055 3.11358163 1.89827488 3.11607704"></polygon>
                            </g>
                        </g>
                    </g>
                    <g id="a" transform="translate(2.282945, 3.443790) scale(-1, 1) translate(-2.282945, -3.443790) translate(0.000000, 0.708499)">
                        <g id="c" transform="translate(2.575948, 1.841512) rotate(72.000000) translate(-2.575948, -1.841512) translate(1.171211, 0.205589)">
                            <polygon id="t" transform="translate(1.649713, 1.635923) rotate(18.000000) translate(-1.649713, -1.635923) " points="0.911198903 0.155769507 0.916189723 3.1135817 2.38822655 3.11607711"></polygon>
                            <g id="t-link" transform="translate(1.159761, 1.635923) scale(-1, 1) translate(-1.159761, -1.635923) ">
                                <polygon id="t" transform="translate(1.159761, 1.635923) rotate(18.000000) translate(-1.159761, -1.635923) " points="0.42124724 0.155769438 0.426238055 3.11358163 1.89827488 3.11607704"></polygon>
                            </g>
                        </g>
                        <g id="c" transform="translate(2.098028, 3.321408) rotate(144.000000) translate(-2.098028, -3.321408) translate(0.693291, 1.685484)">
                            <polygon id="t" transform="translate(1.649713, 1.635923) rotate(18.000000) translate(-1.649713, -1.635923) " points="0.911198903 0.155769507 0.916189723 3.1135817 2.38822655 3.11607711"></polygon>
                            <g id="t-link" transform="translate(1.159761, 1.635923) scale(-1, 1) translate(-1.159761, -1.635923) ">
                                <polygon id="t" transform="translate(1.159761, 1.635923) rotate(18.000000) translate(-1.159761, -1.635923) " points="0.42124724 0.155769438 0.426238055 3.11358163 1.89827488 3.11607704"></polygon>
                            </g>
                        </g>
                    </g>
                </g>
                <g id="s" transform="translate(17.654712, 35.513206)">
                    <g id="c" transform="translate(1.836418, 0.000000)">
                        <polygon id="t" transform="translate(1.649713, 1.635923) rotate(18.000000) translate(-1.649713, -1.635923) " points="0.911198903 0.155769507 0.916189723 3.1135817 2.38822655 3.11607711"></polygon>
                        <g id="t-link" transform="translate(1.159761, 1.635923) scale(-1, 1) translate(-1.159761, -1.635923) ">
                            <polygon id="t" transform="translate(1.159761, 1.635923) rotate(18.000000) translate(-1.159761, -1.635923) " points="0.42124724 0.155769438 0.426238055 3.11358163 1.89827488 3.11607704"></polygon>
                        </g>
                    </g>
                    <g id="a" transform="translate(1.916419, 0.708499)">
                        <g id="c" transform="translate(2.575948, 1.841512) rotate(72.000000) translate(-2.575948, -1.841512) translate(1.171211, 0.205589)">
                            <polygon id="t" transform="translate(1.649713, 1.635923) rotate(18.000000) translate(-1.649713, -1.635923) " points="0.911198903 0.155769507 0.916189723 3.1135817 2.38822655 3.11607711"></polygon>
                            <g id="t-link" transform="translate(1.159761, 1.635923) scale(-1, 1) translate(-1.159761, -1.635923) ">
                                <polygon id="t" transform="translate(1.159761, 1.635923) rotate(18.000000) translate(-1.159761, -1.635923) " points="0.42124724 0.155769438 0.426238055 3.11358163 1.89827488 3.11607704"></polygon>
                            </g>
                        </g>
                        <g id="c" transform="translate(2.098028, 3.321408) rotate(144.000000) translate(-2.098028, -3.321408) translate(0.693291, 1.685484)">
                            <polygon id="t" transform="translate(1.649713, 1.635923) rotate(18.000000) translate(-1.649713, -1.635923) " points="0.911198903 0.155769507 0.916189723 3.1135817 2.38822655 3.11607711"></polygon>
                            <g id="t-link" transform="translate(1.159761, 1.635923) scale(-1, 1) translate(-1.159761, -1.635923) ">
                                <polygon id="t" transform="translate(1.159761, 1.635923) rotate(18.000000) translate(-1.159761, -1.635923) " points="0.42124724 0.155769438 0.426238055 3.11358163 1.89827488 3.11607704"></polygon>
                            </g>
                        </g>
                    </g>
                    <g id="a" transform="translate(2.282945, 3.443790) scale(-1, 1) translate(-2.282945, -3.443790) translate(0.000000, 0.708499)">
                        <g id="c" transform="translate(2.575948, 1.841512) rotate(72.000000) translate(-2.575948, -1.841512) translate(1.171211, 0.205589)">
                            <polygon id="t" transform="translate(1.649713, 1.635923) rotate(18.000000) translate(-1.649713, -1.635923) " points="0.911198903 0.155769507 0.916189723 3.1135817 2.38822655 3.11607711"></polygon>
                            <g id="t-link" transform="translate(1.159761, 1.635923) scale(-1, 1) translate(-1.159761, -1.635923) ">
                                <polygon id="t" transform="translate(1.159761, 1.635923) rotate(18.000000) translate(-1.159761, -1.635923) " points="0.42124724 0.155769438 0.426238055 3.11358163 1.89827488 3.11607704"></polygon>
                            </g>
                        </g>
                        <g id="c" transform="translate(2.098028, 3.321408) rotate(144.000000) translate(-2.098028, -3.321408) translate(0.693291, 1.685484)">
                            <polygon id="t" transform="translate(1.649713, 1.635923) rotate(18.000000) translate(-1.649713, -1.635923) " points="0.911198903 0.155769507 0.916189723 3.1135817 2.38822655 3.11607711"></polygon>
                            <g id="t-link" transform="translate(1.159761, 1.635923) scale(-1, 1) translate(-1.159761, -1.635923) ">
                                <polygon id="t" transform="translate(1.159761, 1.635923) rotate(18.000000) translate(-1.159761, -1.635923) " points="0.42124724 0.155769438 0.426238055 3.11358163 1.89827488 3.11607704"></polygon>
                            </g>
                        </g>
                    </g>
                </g>
                <g id="l" transform="translate(0.000000, 0.828554)">
                    <g id="s" transform="translate(0.000000, 16.928049)">
                        <g id="c" transform="translate(1.836418, 0.000000)">
                            <polygon id="t" transform="translate(1.649713, 1.635923) rotate(18.000000) translate(-1.649713, -1.635923) " points="0.911198903 0.155769507 0.916189723 3.1135817 2.38822655 3.11607711"></polygon>
                            <g id="t-link" transform="translate(1.159761, 1.635923) scale(-1, 1) translate(-1.159761, -1.635923) ">
                                <polygon id="t" transform="translate(1.159761, 1.635923) rotate(18.000000) translate(-1.159761, -1.635923) " points="0.42124724 0.155769438 0.426238055 3.11358163 1.89827488 3.11607704"></polygon>
                            </g>
                        </g>
                        <g id="a" transform="translate(1.916419, 0.708499)">
                            <g id="c" transform="translate(2.575948, 1.841512) rotate(72.000000) translate(-2.575948, -1.841512) translate(1.171211, 0.205589)">
                                <polygon id="t" transform="translate(1.649713, 1.635923) rotate(18.000000) translate(-1.649713, -1.635923) " points="0.911198903 0.155769507 0.916189723 3.1135817 2.38822655 3.11607711"></polygon>
                                <g id="t-link" transform="translate(1.159761, 1.635923) scale(-1, 1) translate(-1.159761, -1.635923) ">
                                    <polygon id="t" transform="translate(1.159761, 1.635923) rotate(18.000000) translate(-1.159761, -1.635923) " points="0.42124724 0.155769438 0.426238055 3.11358163 1.89827488 3.11607704"></polygon>
                                </g>
                            </g>
                            <g id="c" transform="translate(2.098028, 3.321408) rotate(144.000000) translate(-2.098028, -3.321408) translate(0.693291, 1.685484)">
                                <polygon id="t" transform="translate(1.649713, 1.635923) rotate(18.000000) translate(-1.649713, -1.635923) " points="0.911198903 0.155769507 0.916189723 3.1135817 2.38822655 3.11607711"></polygon>
                                <g id="t-link" transform="translate(1.159761, 1.635923) scale(-1, 1) translate(-1.159761, -1.635923) ">
                                    <polygon id="t" transform="translate(1.159761, 1.635923) rotate(18.000000) translate(-1.159761, -1.635923) " points="0.42124724 0.155769438 0.426238055 3.11358163 1.89827488 3.11607704"></polygon>
                                </g>
                            </g>
                        </g>
                        <g id="a" transform="translate(2.282945, 3.443790) scale(-1, 1) translate(-2.282945, -3.443790) translate(0.000000, 0.708499)">
                            <g id="c" transform="translate(2.575948, 1.841512) rotate(72.000000) translate(-2.575948, -1.841512) translate(1.171211, 0.205589)">
                                <polygon id="t" transform="translate(1.649713, 1.635923) rotate(18.000000) translate(-1.649713, -1.635923) " points="0.911198903 0.155769507 0.916189723 3.1135817 2.38822655 3.11607711"></polygon>
                                <g id="t-link" transform="translate(1.159761, 1.635923) scale(-1, 1) translate(-1.159761, -1.635923) ">
                                    <polygon id="t" transform="translate(1.159761, 1.635923) rotate(18.000000) translate(-1.159761, -1.635923) " points="0.42124724 0.155769438 0.426238055 3.11358163 1.89827488 3.11607704"></polygon>
                                </g>
                            </g>
                            <g id="c" transform="translate(2.098028, 3.321408) rotate(144.000000) translate(-2.098028, -3.321408) translate(0.693291, 1.685484)">
                                <polygon id="t" transform="translate(1.649713, 1.635923) rotate(18.000000) translate(-1.649713, -1.635923) " points="0.911198903 0.155769507 0.916189723 3.1135817 2.38822655 3.11607711"></polygon>
                                <g id="t-link" transform="translate(1.159761, 1.635923) scale(-1, 1) translate(-1.159761, -1.635923) ">
                                    <polygon id="t" transform="translate(1.159761, 1.635923) rotate(18.000000) translate(-1.159761, -1.635923) " points="0.42124724 0.155769438 0.426238055 3.11358163 1.89827488 3.11607704"></polygon>
                                </g>
                            </g>
                        </g>
                    </g>
                    <g id="s" transform="translate(12.142232, 4.404594) rotate(-144.000000) translate(-12.142232, -4.404594) translate(8.901077, 1.315054)">
                        <g id="c" transform="translate(1.836418, 0.000000)">
                            <polygon id="t" transform="translate(1.649713, 1.635923) rotate(18.000000) translate(-1.649713, -1.635923) " points="0.911198903 0.155769507 0.916189723 3.1135817 2.38822655 3.11607711"></polygon>
                            <g id="t-link" transform="translate(1.159761, 1.635923) scale(-1, 1) translate(-1.159761, -1.635923) ">
                                <polygon id="t" transform="translate(1.159761, 1.635923) rotate(18.000000) translate(-1.159761, -1.635923) " points="0.42124724 0.155769438 0.426238055 3.11358163 1.89827488 3.11607704"></polygon>
                            </g>
                        </g>
                        <g id="a" transform="translate(1.916419, 0.708499)">
                            <g id="c" transform="translate(2.575948, 1.841512) rotate(72.000000) translate(-2.575948, -1.841512) translate(1.171211, 0.205589)">
                                <polygon id="t" transform="translate(1.649713, 1.635923) rotate(18.000000) translate(-1.649713, -1.635923) " points="0.911198903 0.155769507 0.916189723 3.1135817 2.38822655 3.11607711"></polygon>
                                <g id="t-link" transform="translate(1.159761, 1.635923) scale(-1, 1) translate(-1.159761, -1.635923) ">
                                    <polygon id="t" transform="translate(1.159761, 1.635923) rotate(18.000000) translate(-1.159761, -1.635923) " points="0.42124724 0.155769438 0.426238055 3.11358163 1.89827488 3.11607704"></polygon>
                                </g>
                            </g>
                            <g id="c" transform="translate(2.098028, 3.321408) rotate(144.000000) translate(-2.098028, -3.321408) translate(0.693291, 1.685484)">
                                <polygon id="t" transform="translate(1.649713, 1.635923) rotate(18.000000) translate(-1.649713, -1.635923) " points="0.911198903 0.155769507 0.916189723 3.1135817 2.38822655 3.11607711"></polygon>
                                <g id="t-link" transform="translate(1.159761, 1.635923) scale(-1, 1) translate(-1.159761, -1.635923) ">
                                    <polygon id="t" transform="translate(1.159761, 1.635923) rotate(18.000000) translate(-1.159761, -1.635923) " points="0.42124724 0.155769438 0.426238055 3.11358163 1.89827488 3.11607704"></polygon>
                                </g>
                            </g>
                        </g>
                        <g id="a" transform="translate(2.282945, 3.443790) scale(-1, 1) translate(-2.282945, -3.443790) translate(0.000000, 0.708499)">
                            <g id="c" transform="translate(2.575948, 1.841512) rotate(72.000000) translate(-2.575948, -1.841512) translate(1.171211, 0.205589)">
                                <polygon id="t" transform="translate(1.649713, 1.635923) rotate(18.000000) translate(-1.649713, -1.635923) " points="0.911198903 0.155769507 0.916189723 3.1135817 2.38822655 3.11607711"></polygon>
                                <g id="t-link" transform="translate(1.159761, 1.635923) scale(-1, 1) translate(-1.159761, -1.635923) ">
                                    <polygon id="t" transform="translate(1.159761, 1.635923) rotate(18.000000) translate(-1.159761, -1.635923) " points="0.42124724 0.155769438 0.426238055 3.11358163 1.89827488 3.11607704"></polygon>
                                </g>
                            </g>
                            <g id="c" transform="translate(2.098028, 3.321408) rotate(144.000000) translate(-2.098028, -3.321408) translate(0.693291, 1.685484)">
                                <polygon id="t" transform="translate(1.649713, 1.635923) rotate(18.000000) translate(-1.649713, -1.635923) " points="0.911198903 0.155769507 0.916189723 3.1135817 2.38822655 3.11607711"></polygon>
                                <g id="t-link" transform="translate(1.159761, 1.635923) scale(-1, 1) translate(-1.159761, -1.635923) ">
                                    <polygon id="t" transform="translate(1.159761, 1.635923) rotate(18.000000) translate(-1.159761, -1.635923) " points="0.42124724 0.155769438 0.426238055 3.11358163 1.89827488 3.11607704"></polygon>
                                </g>
                            </g>
                        </g>
                    </g>
                    <g id="s" transform="translate(5.532715, 10.903885) rotate(144.000000) translate(-5.532715, -10.903885) translate(2.291560, 7.814345)">
                        <g id="c" transform="translate(1.836418, 0.000000)">
                            <polygon id="t" transform="translate(1.649713, 1.635923) rotate(18.000000) translate(-1.649713, -1.635923) " points="0.911198903 0.155769507 0.916189723 3.1135817 2.38822655 3.11607711"></polygon>
                            <g id="t-link" transform="translate(1.159761, 1.635923) scale(-1, 1) translate(-1.159761, -1.635923) ">
                                <polygon id="t" transform="translate(1.159761, 1.635923) rotate(18.000000) translate(-1.159761, -1.635923) " points="0.42124724 0.155769438 0.426238055 3.11358163 1.89827488 3.11607704"></polygon>
                            </g>
                        </g>
                        <g id="a" transform="translate(1.916419, 0.708499)">
                            <g id="c" transform="translate(2.575948, 1.841512) rotate(72.000000) translate(-2.575948, -1.841512) translate(1.171211, 0.205589)">
                                <polygon id="t" transform="translate(1.649713, 1.635923) rotate(18.000000) translate(-1.649713, -1.635923) " points="0.911198903 0.155769507 0.916189723 3.1135817 2.38822655 3.11607711"></polygon>
                                <g id="t-link" transform="translate(1.159761, 1.635923) scale(-1, 1) translate(-1.159761, -1.635923) ">
                                    <polygon id="t" transform="translate(1.159761, 1.635923) rotate(18.000000) translate(-1.159761, -1.635923) " points="0.42124724 0.155769438 0.426238055 3.11358163 1.89827488 3.11607704"></polygon>
                                </g>
                            </g>
                            <g id="c" transform="translate(2.098028, 3.321408) rotate(144.000000) translate(-2.098028, -3.321408) translate(0.693291, 1.685484)">
                                <polygon id="t" transform="translate(1.649713, 1.635923) rotate(18.000000) translate(-1.649713, -1.635923) " points="0.911198903 0.155769507 0.916189723 3.1135817 2.38822655 3.11607711"></polygon>
                                <g id="t-link" transform="translate(1.159761, 1.635923) scale(-1, 1) translate(-1.159761, -1.635923) ">
                                    <polygon id="t" transform="translate(1.159761, 1.635923) rotate(18.000000) translate(-1.159761, -1.635923) " points="0.42124724 0.155769438 0.426238055 3.11358163 1.89827488 3.11607704"></polygon>
                                </g>
                            </g>
                        </g>
                        <g id="a" transform="translate(2.282945, 3.443790) scale(-1, 1) translate(-2.282945, -3.443790) translate(0.000000, 0.708499)">
                            <g id="c" transform="translate(2.575948, 1.841512) rotate(72.000000) translate(-2.575948, -1.841512) translate(1.171211, 0.205589)">
                                <polygon id="t" transform="translate(1.649713, 1.635923) rotate(18.000000) translate(-1.649713, -1.635923) " points="0.911198903 0.155769507 0.916189723 3.1135817 2.38822655 3.11607711"></polygon>
                                <g id="t-link" transform="translate(1.159761, 1.635923) scale(-1, 1) translate(-1.159761, -1.635923) ">
                                    <polygon id="t" transform="translate(1.159761, 1.635923) rotate(18.000000) translate(-1.159761, -1.635923) " points="0.42124724 0.155769438 0.426238055 3.11358163 1.89827488 3.11607704"></polygon>
                                </g>
                            </g>
                            <g id="c" transform="translate(2.098028, 3.321408) rotate(144.000000) translate(-2.098028, -3.321408) translate(0.693291, 1.685484)">
                                <polygon id="t" transform="translate(1.649713, 1.635923) rotate(18.000000) translate(-1.649713, -1.635923) " points="0.911198903 0.155769507 0.916189723 3.1135817 2.38822655 3.11607711"></polygon>
                                <g id="t-link" transform="translate(1.159761, 1.635923) scale(-1, 1) translate(-1.159761, -1.635923) ">
                                    <polygon id="t" transform="translate(1.159761, 1.635923) rotate(18.000000) translate(-1.159761, -1.635923) " points="0.42124724 0.155769438 0.426238055 3.11358163 1.89827488 3.11607704"></polygon>
                                </g>
                            </g>
                        </g>
                    </g>
                    <g id="s" transform="translate(5.487153, 28.805927) rotate(72.000000) translate(-5.487153, -28.805927) translate(2.245998, 25.716387)">
                        <g id="c" transform="translate(1.836418, 0.000000)">
                            <polygon id="t" transform="translate(1.649713, 1.635923) rotate(18.000000) translate(-1.649713, -1.635923) " points="0.911198903 0.155769507 0.916189723 3.1135817 2.38822655 3.11607711"></polygon>
                            <g id="t-link" transform="translate(1.159761, 1.635923) scale(-1, 1) translate(-1.159761, -1.635923) ">
                                <polygon id="t" transform="translate(1.159761, 1.635923) rotate(18.000000) translate(-1.159761, -1.635923) " points="0.42124724 0.155769438 0.426238055 3.11358163 1.89827488 3.11607704"></polygon>
                            </g>
                        </g>
                        <g id="a" transform="translate(1.916419, 0.708499)">
                            <g id="c" transform="translate(2.575948, 1.841512) rotate(72.000000) translate(-2.575948, -1.841512) translate(1.171211, 0.205589)">
                                <polygon id="t" transform="translate(1.649713, 1.635923) rotate(18.000000) translate(-1.649713, -1.635923) " points="0.911198903 0.155769507 0.916189723 3.1135817 2.38822655 3.11607711"></polygon>
                                <g id="t-link" transform="translate(1.159761, 1.635923) scale(-1, 1) translate(-1.159761, -1.635923) ">
                                    <polygon id="t" transform="translate(1.159761, 1.635923) rotate(18.000000) translate(-1.159761, -1.635923) " points="0.42124724 0.155769438 0.426238055 3.11358163 1.89827488 3.11607704"></polygon>
                                </g>
                            </g>
                            <g id="c" transform="translate(2.098028, 3.321408) rotate(144.000000) translate(-2.098028, -3.321408) translate(0.693291, 1.685484)">
                                <polygon id="t" transform="translate(1.649713, 1.635923) rotate(18.000000) translate(-1.649713, -1.635923) " points="0.911198903 0.155769507 0.916189723 3.1135817 2.38822655 3.11607711"></polygon>
                                <g id="t-link" transform="translate(1.159761, 1.635923) scale(-1, 1) translate(-1.159761, -1.635923) ">
                                    <polygon id="t" transform="translate(1.159761, 1.635923) rotate(18.000000) translate(-1.159761, -1.635923) " points="0.42124724 0.155769438 0.426238055 3.11358163 1.89827488 3.11607704"></polygon>
                                </g>
                            </g>
                        </g>
                        <g id="a" transform="translate(2.282945, 3.443790) scale(-1, 1) translate(-2.282945, -3.443790) translate(0.000000, 0.708499)">
                            <g id="c" transform="translate(2.575948, 1.841512) rotate(72.000000) translate(-2.575948, -1.841512) translate(1.171211, 0.205589)">
                                <polygon id="t" transform="translate(1.649713, 1.635923) rotate(18.000000) translate(-1.649713, -1.635923) " points="0.911198903 0.155769507 0.916189723 3.1135817 2.38822655 3.11607711"></polygon>
                                <g id="t-link" transform="translate(1.159761, 1.635923) scale(-1, 1) translate(-1.159761, -1.635923) ">
                                    <polygon id="t" transform="translate(1.159761, 1.635923) rotate(18.000000) translate(-1.159761, -1.635923) " points="0.42124724 0.155769438 0.426238055 3.11358163 1.89827488 3.11607704"></polygon>
                                </g>
                            </g>
                            <g id="c" transform="translate(2.098028, 3.321408) rotate(144.000000) translate(-2.098028, -3.321408) translate(0.693291, 1.685484)">
                                <polygon id="t" transform="translate(1.649713, 1.635923) rotate(18.000000) translate(-1.649713, -1.635923) " points="0.911198903 0.155769507 0.916189723 3.1135817 2.38822655 3.11607711"></polygon>
                                <g id="t-link" transform="translate(1.159761, 1.635923) scale(-1, 1) translate(-1.159761, -1.635923) ">
                                    <polygon id="t" transform="translate(1.159761, 1.635923) rotate(18.000000) translate(-1.159761, -1.635923) " points="0.42124724 0.155769438 0.426238055 3.11358163 1.89827488 3.11607704"></polygon>
                                </g>
                            </g>
                        </g>
                    </g>
                    <g id="s" transform="translate(11.949226, 35.305295) rotate(72.000000) translate(-11.949226, -35.305295) translate(8.708071, 32.215755)">
                        <g id="c" transform="translate(1.836418, 0.000000)">
                            <polygon id="t" transform="translate(1.649713, 1.635923) rotate(18.000000) translate(-1.649713, -1.635923) " points="0.911198903 0.155769507 0.916189723 3.1135817 2.38822655 3.11607711"></polygon>
                            <g id="t-link" transform="translate(1.159761, 1.635923) scale(-1, 1) translate(-1.159761, -1.635923) ">
                                <polygon id="t" transform="translate(1.159761, 1.635923) rotate(18.000000) translate(-1.159761, -1.635923) " points="0.42124724 0.155769438 0.426238055 3.11358163 1.89827488 3.11607704"></polygon>
                            </g>
                        </g>
                        <g id="a" transform="translate(1.916419, 0.708499)">
                            <g id="c" transform="translate(2.575948, 1.841512) rotate(72.000000) translate(-2.575948, -1.841512) translate(1.171211, 0.205589)">
                                <polygon id="t" transform="translate(1.649713, 1.635923) rotate(18.000000) translate(-1.649713, -1.635923) " points="0.911198903 0.155769507 0.916189723 3.1135817 2.38822655 3.11607711"></polygon>
                                <g id="t-link" transform="translate(1.159761, 1.635923) scale(-1, 1) translate(-1.159761, -1.635923) ">
                                    <polygon id="t" transform="translate(1.159761, 1.635923) rotate(18.000000) translate(-1.159761, -1.635923) " points="0.42124724 0.155769438 0.426238055 3.11358163 1.89827488 3.11607704"></polygon>
                                </g>
                            </g>
                            <g id="c" transform="translate(2.098028, 3.321408) rotate(144.000000) translate(-2.098028, -3.321408) translate(0.693291, 1.685484)">
                                <polygon id="t" transform="translate(1.649713, 1.635923) rotate(18.000000) translate(-1.649713, -1.635923) " points="0.911198903 0.155769507 0.916189723 3.1135817 2.38822655 3.11607711"></polygon>
                                <g id="t-link" transform="translate(1.159761, 1.635923) scale(-1, 1) translate(-1.159761, -1.635923) ">
                                    <polygon id="t" transform="translate(1.159761, 1.635923) rotate(18.000000) translate(-1.159761, -1.635923) " points="0.42124724 0.155769438 0.426238055 3.11358163 1.89827488 3.11607704"></polygon>
                                </g>
                            </g>
                        </g>
                        <g id="a" transform="translate(2.282945, 3.443790) scale(-1, 1) translate(-2.282945, -3.443790) translate(0.000000, 0.708499)">
                            <g id="c" transform="translate(2.575948, 1.841512) rotate(72.000000) translate(-2.575948, -1.841512) translate(1.171211, 0.205589)">
                                <polygon id="t" transform="translate(1.649713, 1.635923) rotate(18.000000) translate(-1.649713, -1.635923) " points="0.911198903 0.155769507 0.916189723 3.1135817 2.38822655 3.11607711"></polygon>
                                <g id="t-link" transform="translate(1.159761, 1.635923) scale(-1, 1) translate(-1.159761, -1.635923) ">
                                    <polygon id="t" transform="translate(1.159761, 1.635923) rotate(18.000000) translate(-1.159761, -1.635923) " points="0.42124724 0.155769438 0.426238055 3.11358163 1.89827488 3.11607704"></polygon>
                                </g>
                            </g>
                            <g id="c" transform="translate(2.098028, 3.321408) rotate(144.000000) translate(-2.098028, -3.321408) translate(0.693291, 1.685484)">
                                <polygon id="t" transform="translate(1.649713, 1.635923) rotate(18.000000) translate(-1.649713, -1.635923) " points="0.911198903 0.155769507 0.916189723 3.1135817 2.38822655 3.11607711"></polygon>
                                <g id="t-link" transform="translate(1.159761, 1.635923) scale(-1, 1) translate(-1.159761, -1.635923) ">
                                    <polygon id="t" transform="translate(1.159761, 1.635923) rotate(18.000000) translate(-1.159761, -1.635923) " points="0.42124724 0.155769438 0.426238055 3.11358163 1.89827488 3.11607704"></polygon>
                                </g>
                            </g>
                        </g>
                    </g>
                </g>
                <g id="l" transform="translate(33.501550, 20.499823) scale(-1, 1) translate(-33.501550, -20.499823) translate(25.211366, 0.828554)">
                    <g id="s" transform="translate(0.000000, 16.928049)">
                        <g id="c" transform="translate(1.836418, 0.000000)">
                            <polygon id="t" transform="translate(1.649713, 1.635923) rotate(18.000000) translate(-1.649713, -1.635923) " points="0.911198903 0.155769507 0.916189723 3.1135817 2.38822655 3.11607711"></polygon>
                            <g id="t-link" transform="translate(1.159761, 1.635923) scale(-1, 1) translate(-1.159761, -1.635923) ">
                                <polygon id="t" transform="translate(1.159761, 1.635923) rotate(18.000000) translate(-1.159761, -1.635923) " points="0.42124724 0.155769438 0.426238055 3.11358163 1.89827488 3.11607704"></polygon>
                            </g>
                        </g>
                        <g id="a" transform="translate(1.916419, 0.708499)">
                            <g id="c" transform="translate(2.575948, 1.841512) rotate(72.000000) translate(-2.575948, -1.841512) translate(1.171211, 0.205589)">
                                <polygon id="t" transform="translate(1.649713, 1.635923) rotate(18.000000) translate(-1.649713, -1.635923) " points="0.911198903 0.155769507 0.916189723 3.1135817 2.38822655 3.11607711"></polygon>
                                <g id="t-link" transform="translate(1.159761, 1.635923) scale(-1, 1) translate(-1.159761, -1.635923) ">
                                    <polygon id="t" transform="translate(1.159761, 1.635923) rotate(18.000000) translate(-1.159761, -1.635923) " points="0.42124724 0.155769438 0.426238055 3.11358163 1.89827488 3.11607704"></polygon>
                                </g>
                            </g>
                            <g id="c" transform="translate(2.098028, 3.321408) rotate(144.000000) translate(-2.098028, -3.321408) translate(0.693291, 1.685484)">
                                <polygon id="t" transform="translate(1.649713, 1.635923) rotate(18.000000) translate(-1.649713, -1.635923) " points="0.911198903 0.155769507 0.916189723 3.1135817 2.38822655 3.11607711"></polygon>
                                <g id="t-link" transform="translate(1.159761, 1.635923) scale(-1, 1) translate(-1.159761, -1.635923) ">
                                    <polygon id="t" transform="translate(1.159761, 1.635923) rotate(18.000000) translate(-1.159761, -1.635923) " points="0.42124724 0.155769438 0.426238055 3.11358163 1.89827488 3.11607704"></polygon>
                                </g>
                            </g>
                        </g>
                        <g id="a" transform="translate(2.282945, 3.443790) scale(-1, 1) translate(-2.282945, -3.443790) translate(0.000000, 0.708499)">
                            <g id="c" transform="translate(2.575948, 1.841512) rotate(72.000000) translate(-2.575948, -1.841512) translate(1.171211, 0.205589)">
                                <polygon id="t" transform="translate(1.649713, 1.635923) rotate(18.000000) translate(-1.649713, -1.635923) " points="0.911198903 0.155769507 0.916189723 3.1135817 2.38822655 3.11607711"></polygon>
                                <g id="t-link" transform="translate(1.159761, 1.635923) scale(-1, 1) translate(-1.159761, -1.635923) ">
                                    <polygon id="t" transform="translate(1.159761, 1.635923) rotate(18.000000) translate(-1.159761, -1.635923) " points="0.42124724 0.155769438 0.426238055 3.11358163 1.89827488 3.11607704"></polygon>
                                </g>
                            </g>
                            <g id="c" transform="translate(2.098028, 3.321408) rotate(144.000000) translate(-2.098028, -3.321408) translate(0.693291, 1.685484)">
                                <polygon id="t" transform="translate(1.649713, 1.635923) rotate(18.000000) translate(-1.649713, -1.635923) " points="0.911198903 0.155769507 0.916189723 3.1135817 2.38822655 3.11607711"></polygon>
                                <g id="t-link" transform="translate(1.159761, 1.635923) scale(-1, 1) translate(-1.159761, -1.635923) ">
                                    <polygon id="t" transform="translate(1.159761, 1.635923) rotate(18.000000) translate(-1.159761, -1.635923) " points="0.42124724 0.155769438 0.426238055 3.11358163 1.89827488 3.11607704"></polygon>
                                </g>
                            </g>
                        </g>
                    </g>
                    <g id="s" transform="translate(12.142232, 4.404594) rotate(-144.000000) translate(-12.142232, -4.404594) translate(8.901077, 1.315054)">
                        <g id="c" transform="translate(1.836418, 0.000000)">
                            <polygon id="t" transform="translate(1.649713, 1.635923) rotate(18.000000) translate(-1.649713, -1.635923) " points="0.911198903 0.155769507 0.916189723 3.1135817 2.38822655 3.11607711"></polygon>
                            <g id="t-link" transform="translate(1.159761, 1.635923) scale(-1, 1) translate(-1.159761, -1.635923) ">
                                <polygon id="t" transform="translate(1.159761, 1.635923) rotate(18.000000) translate(-1.159761, -1.635923) " points="0.42124724 0.155769438 0.426238055 3.11358163 1.89827488 3.11607704"></polygon>
                            </g>
                        </g>
                        <g id="a" transform="translate(1.916419, 0.708499)">
                            <g id="c" transform="translate(2.575948, 1.841512) rotate(72.000000) translate(-2.575948, -1.841512) translate(1.171211, 0.205589)">
                                <polygon id="t" transform="translate(1.649713, 1.635923) rotate(18.000000) translate(-1.649713, -1.635923) " points="0.911198903 0.155769507 0.916189723 3.1135817 2.38822655 3.11607711"></polygon>
                                <g id="t-link" transform="translate(1.159761, 1.635923) scale(-1, 1) translate(-1.159761, -1.635923) ">
                                    <polygon id="t" transform="translate(1.159761, 1.635923) rotate(18.000000) translate(-1.159761, -1.635923) " points="0.42124724 0.155769438 0.426238055 3.11358163 1.89827488 3.11607704"></polygon>
                                </g>
                            </g>
                            <g id="c" transform="translate(2.098028, 3.321408) rotate(144.000000) translate(-2.098028, -3.321408) translate(0.693291, 1.685484)">
                                <polygon id="t" transform="translate(1.649713, 1.635923) rotate(18.000000) translate(-1.649713, -1.635923) " points="0.911198903 0.155769507 0.916189723 3.1135817 2.38822655 3.11607711"></polygon>
                                <g id="t-link" transform="translate(1.159761, 1.635923) scale(-1, 1) translate(-1.159761, -1.635923) ">
                                    <polygon id="t" transform="translate(1.159761, 1.635923) rotate(18.000000) translate(-1.159761, -1.635923) " points="0.42124724 0.155769438 0.426238055 3.11358163 1.89827488 3.11607704"></polygon>
                                </g>
                            </g>
                        </g>
                        <g id="a" transform="translate(2.282945, 3.443790) scale(-1, 1) translate(-2.282945, -3.443790) translate(0.000000, 0.708499)">
                            <g id="c" transform="translate(2.575948, 1.841512) rotate(72.000000) translate(-2.575948, -1.841512) translate(1.171211, 0.205589)">
                                <polygon id="t" transform="translate(1.649713, 1.635923) rotate(18.000000) translate(-1.649713, -1.635923) " points="0.911198903 0.155769507 0.916189723 3.1135817 2.38822655 3.11607711"></polygon>
                                <g id="t-link" transform="translate(1.159761, 1.635923) scale(-1, 1) translate(-1.159761, -1.635923) ">
                                    <polygon id="t" transform="translate(1.159761, 1.635923) rotate(18.000000) translate(-1.159761, -1.635923) " points="0.42124724 0.155769438 0.426238055 3.11358163 1.89827488 3.11607704"></polygon>
                                </g>
                            </g>
                            <g id="c" transform="translate(2.098028, 3.321408) rotate(144.000000) translate(-2.098028, -3.321408) translate(0.693291, 1.685484)">
                                <polygon id="t" transform="translate(1.649713, 1.635923) rotate(18.000000) translate(-1.649713, -1.635923) " points="0.911198903 0.155769507 0.916189723 3.1135817 2.38822655 3.11607711"></polygon>
                                <g id="t-link" transform="translate(1.159761, 1.635923) scale(-1, 1) translate(-1.159761, -1.635923) ">
                                    <polygon id="t" transform="translate(1.159761, 1.635923) rotate(18.000000) translate(-1.159761, -1.635923) " points="0.42124724 0.155769438 0.426238055 3.11358163 1.89827488 3.11607704"></polygon>
                                </g>
                            </g>
                        </g>
                    </g>
                    <g id="s" transform="translate(5.532715, 10.903885) rotate(144.000000) translate(-5.532715, -10.903885) translate(2.291560, 7.814345)">
                        <g id="c" transform="translate(1.836418, 0.000000)">
                            <polygon id="t" transform="translate(1.649713, 1.635923) rotate(18.000000) translate(-1.649713, -1.635923) " points="0.911198903 0.155769507 0.916189723 3.1135817 2.38822655 3.11607711"></polygon>
                            <g id="t-link" transform="translate(1.159761, 1.635923) scale(-1, 1) translate(-1.159761, -1.635923) ">
                                <polygon id="t" transform="translate(1.159761, 1.635923) rotate(18.000000) translate(-1.159761, -1.635923) " points="0.42124724 0.155769438 0.426238055 3.11358163 1.89827488 3.11607704"></polygon>
                            </g>
                        </g>
                        <g id="a" transform="translate(1.916419, 0.708499)">
                            <g id="c" transform="translate(2.575948, 1.841512) rotate(72.000000) translate(-2.575948, -1.841512) translate(1.171211, 0.205589)">
                                <polygon id="t" transform="translate(1.649713, 1.635923) rotate(18.000000) translate(-1.649713, -1.635923) " points="0.911198903 0.155769507 0.916189723 3.1135817 2.38822655 3.11607711"></polygon>
                                <g id="t-link" transform="translate(1.159761, 1.635923) scale(-1, 1) translate(-1.159761, -1.635923) ">
                                    <polygon id="t" transform="translate(1.159761, 1.635923) rotate(18.000000) translate(-1.159761, -1.635923) " points="0.42124724 0.155769438 0.426238055 3.11358163 1.89827488 3.11607704"></polygon>
                                </g>
                            </g>
                            <g id="c" transform="translate(2.098028, 3.321408) rotate(144.000000) translate(-2.098028, -3.321408) translate(0.693291, 1.685484)">
                                <polygon id="t" transform="translate(1.649713, 1.635923) rotate(18.000000) translate(-1.649713, -1.635923) " points="0.911198903 0.155769507 0.916189723 3.1135817 2.38822655 3.11607711"></polygon>
                                <g id="t-link" transform="translate(1.159761, 1.635923) scale(-1, 1) translate(-1.159761, -1.635923) ">
                                    <polygon id="t" transform="translate(1.159761, 1.635923) rotate(18.000000) translate(-1.159761, -1.635923) " points="0.42124724 0.155769438 0.426238055 3.11358163 1.89827488 3.11607704"></polygon>
                                </g>
                            </g>
                        </g>
                        <g id="a" transform="translate(2.282945, 3.443790) scale(-1, 1) translate(-2.282945, -3.443790) translate(0.000000, 0.708499)">
                            <g id="c" transform="translate(2.575948, 1.841512) rotate(72.000000) translate(-2.575948, -1.841512) translate(1.171211, 0.205589)">
                                <polygon id="t" transform="translate(1.649713, 1.635923) rotate(18.000000) translate(-1.649713, -1.635923) " points="0.911198903 0.155769507 0.916189723 3.1135817 2.38822655 3.11607711"></polygon>
                                <g id="t-link" transform="translate(1.159761, 1.635923) scale(-1, 1) translate(-1.159761, -1.635923) ">
                                    <polygon id="t" transform="translate(1.159761, 1.635923) rotate(18.000000) translate(-1.159761, -1.635923) " points="0.42124724 0.155769438 0.426238055 3.11358163 1.89827488 3.11607704"></polygon>
                                </g>
                            </g>
                            <g id="c" transform="translate(2.098028, 3.321408) rotate(144.000000) translate(-2.098028, -3.321408) translate(0.693291, 1.685484)">
                                <polygon id="t" transform="translate(1.649713, 1.635923) rotate(18.000000) translate(-1.649713, -1.635923) " points="0.911198903 0.155769507 0.916189723 3.1135817 2.38822655 3.11607711"></polygon>
                                <g id="t-link" transform="translate(1.159761, 1.635923) scale(-1, 1) translate(-1.159761, -1.635923) ">
                                    <polygon id="t" transform="translate(1.159761, 1.635923) rotate(18.000000) translate(-1.159761, -1.635923) " points="0.42124724 0.155769438 0.426238055 3.11358163 1.89827488 3.11607704"></polygon>
                                </g>
                            </g>
                        </g>
                    </g>
                    <g id="s" transform="translate(5.487153, 28.805927) rotate(72.000000) translate(-5.487153, -28.805927) translate(2.245998, 25.716387)">
                        <g id="c" transform="translate(1.836418, 0.000000)">
                            <polygon id="t" transform="translate(1.649713, 1.635923) rotate(18.000000) translate(-1.649713, -1.635923) " points="0.911198903 0.155769507 0.916189723 3.1135817 2.38822655 3.11607711"></polygon>
                            <g id="t-link" transform="translate(1.159761, 1.635923) scale(-1, 1) translate(-1.159761, -1.635923) ">
                                <polygon id="t" transform="translate(1.159761, 1.635923) rotate(18.000000) translate(-1.159761, -1.635923) " points="0.42124724 0.155769438 0.426238055 3.11358163 1.89827488 3.11607704"></polygon>
                            </g>
                        </g>
                        <g id="a" transform="translate(1.916419, 0.708499)">
                            <g id="c" transform="translate(2.575948, 1.841512) rotate(72.000000) translate(-2.575948, -1.841512) translate(1.171211, 0.205589)">
                                <polygon id="t" transform="translate(1.649713, 1.635923) rotate(18.000000) translate(-1.649713, -1.635923) " points="0.911198903 0.155769507 0.916189723 3.1135817 2.38822655 3.11607711"></polygon>
                                <g id="t-link" transform="translate(1.159761, 1.635923) scale(-1, 1) translate(-1.159761, -1.635923) ">
                                    <polygon id="t" transform="translate(1.159761, 1.635923) rotate(18.000000) translate(-1.159761, -1.635923) " points="0.42124724 0.155769438 0.426238055 3.11358163 1.89827488 3.11607704"></polygon>
                                </g>
                            </g>
                            <g id="c" transform="translate(2.098028, 3.321408) rotate(144.000000) translate(-2.098028, -3.321408) translate(0.693291, 1.685484)">
                                <polygon id="t" transform="translate(1.649713, 1.635923) rotate(18.000000) translate(-1.649713, -1.635923) " points="0.911198903 0.155769507 0.916189723 3.1135817 2.38822655 3.11607711"></polygon>
                                <g id="t-link" transform="translate(1.159761, 1.635923) scale(-1, 1) translate(-1.159761, -1.635923) ">
                                    <polygon id="t" transform="translate(1.159761, 1.635923) rotate(18.000000) translate(-1.159761, -1.635923) " points="0.42124724 0.155769438 0.426238055 3.11358163 1.89827488 3.11607704"></polygon>
                                </g>
                            </g>
                        </g>
                        <g id="a" transform="translate(2.282945, 3.443790) scale(-1, 1) translate(-2.282945, -3.443790) translate(0.000000, 0.708499)">
                            <g id="c" transform="translate(2.575948, 1.841512) rotate(72.000000) translate(-2.575948, -1.841512) translate(1.171211, 0.205589)">
                                <polygon id="t" transform="translate(1.649713, 1.635923) rotate(18.000000) translate(-1.649713, -1.635923) " points="0.911198903 0.155769507 0.916189723 3.1135817 2.38822655 3.11607711"></polygon>
                                <g id="t-link" transform="translate(1.159761, 1.635923) scale(-1, 1) translate(-1.159761, -1.635923) ">
                                    <polygon id="t" transform="translate(1.159761, 1.635923) rotate(18.000000) translate(-1.159761, -1.635923) " points="0.42124724 0.155769438 0.426238055 3.11358163 1.89827488 3.11607704"></polygon>
                                </g>
                            </g>
                            <g id="c" transform="translate(2.098028, 3.321408) rotate(144.000000) translate(-2.098028, -3.321408) translate(0.693291, 1.685484)">
                                <polygon id="t" transform="translate(1.649713, 1.635923) rotate(18.000000) translate(-1.649713, -1.635923) " points="0.911198903 0.155769507 0.916189723 3.1135817 2.38822655 3.11607711"></polygon>
                                <g id="t-link" transform="translate(1.159761, 1.635923) scale(-1, 1) translate(-1.159761, -1.635923) ">
                                    <polygon id="t" transform="translate(1.159761, 1.635923) rotate(18.000000) translate(-1.159761, -1.635923) " points="0.42124724 0.155769438 0.426238055 3.11358163 1.89827488 3.11607704"></polygon>
                                </g>
                            </g>
                        </g>
                    </g>
                    <g id="s" transform="translate(11.949226, 35.305295) rotate(72.000000) translate(-11.949226, -35.305295) translate(8.708071, 32.215755)">
                        <g id="c" transform="translate(1.836418, 0.000000)">
                            <polygon id="t" transform="translate(1.649713, 1.635923) rotate(18.000000) translate(-1.649713, -1.635923) " points="0.911198903 0.155769507 0.916189723 3.1135817 2.38822655 3.11607711"></polygon>
                            <g id="t-link" transform="translate(1.159761, 1.635923) scale(-1, 1) translate(-1.159761, -1.635923) ">
                                <polygon id="t" transform="translate(1.159761, 1.635923) rotate(18.000000) translate(-1.159761, -1.635923) " points="0.42124724 0.155769438 0.426238055 3.11358163 1.89827488 3.11607704"></polygon>
                            </g>
                        </g>
                        <g id="a" transform="translate(1.916419, 0.708499)">
                            <g id="c" transform="translate(2.575948, 1.841512) rotate(72.000000) translate(-2.575948, -1.841512) translate(1.171211, 0.205589)">
                                <polygon id="t" transform="translate(1.649713, 1.635923) rotate(18.000000) translate(-1.649713, -1.635923) " points="0.911198903 0.155769507 0.916189723 3.1135817 2.38822655 3.11607711"></polygon>
                                <g id="t-link" transform="translate(1.159761, 1.635923) scale(-1, 1) translate(-1.159761, -1.635923) ">
                                    <polygon id="t" transform="translate(1.159761, 1.635923) rotate(18.000000) translate(-1.159761, -1.635923) " points="0.42124724 0.155769438 0.426238055 3.11358163 1.89827488 3.11607704"></polygon>
                                </g>
                            </g>
                            <g id="c" transform="translate(2.098028, 3.321408) rotate(144.000000) translate(-2.098028, -3.321408) translate(0.693291, 1.685484)">
                                <polygon id="t" transform="translate(1.649713, 1.635923) rotate(18.000000) translate(-1.649713, -1.635923) " points="0.911198903 0.155769507 0.916189723 3.1135817 2.38822655 3.11607711"></polygon>
                                <g id="t-link" transform="translate(1.159761, 1.635923) scale(-1, 1) translate(-1.159761, -1.635923) ">
                                    <polygon id="t" transform="translate(1.159761, 1.635923) rotate(18.000000) translate(-1.159761, -1.635923) " points="0.42124724 0.155769438 0.426238055 3.11358163 1.89827488 3.11607704"></polygon>
                                </g>
                            </g>
                        </g>
                        <g id="a" transform="translate(2.282945, 3.443790) scale(-1, 1) translate(-2.282945, -3.443790) translate(0.000000, 0.708499)">
                            <g id="c" transform="translate(2.575948, 1.841512) rotate(72.000000) translate(-2.575948, -1.841512) translate(1.171211, 0.205589)">
                                <polygon id="t" transform="translate(1.649713, 1.635923) rotate(18.000000) translate(-1.649713, -1.635923) " points="0.911198903 0.155769507 0.916189723 3.1135817 2.38822655 3.11607711"></polygon>
                                <g id="t-link" transform="translate(1.159761, 1.635923) scale(-1, 1) translate(-1.159761, -1.635923) ">
                                    <polygon id="t" transform="translate(1.159761, 1.635923) rotate(18.000000) translate(-1.159761, -1.635923) " points="0.42124724 0.155769438 0.426238055 3.11358163 1.89827488 3.11607704"></polygon>
                                </g>
                            </g>
                            <g id="c" transform="translate(2.098028, 3.321408) rotate(144.000000) translate(-2.098028, -3.321408) translate(0.693291, 1.685484)">
                                <polygon id="t" transform="translate(1.649713, 1.635923) rotate(18.000000) translate(-1.649713, -1.635923) " points="0.911198903 0.155769507 0.916189723 3.1135817 2.38822655 3.11607711"></polygon>
                                <g id="t-link" transform="translate(1.159761, 1.635923) scale(-1, 1) translate(-1.159761, -1.635923) ">
                                    <polygon id="t" transform="translate(1.159761, 1.635923) rotate(18.000000) translate(-1.159761, -1.635923) " points="0.42124724 0.155769438 0.426238055 3.11358163 1.89827488 3.11607704"></polygon>
                                </g>
                            </g>
                        </g>
                    </g>
                </g>
            </g>
        </g>
    </g>
</svg>